<mxfile host="app.diagrams.net" modified="2023-10-24T06:18:32.323Z" agent="Mozilla/5.0 (Windows NT 10.0; Win64; x64) AppleWebKit/537.36 (KHTML, like Gecko) Chrome/118.0.0.0 Safari/537.36 Edg/118.0.2088.61" etag="Q6mStPgTxBSKDB9qWwxn" version="22.0.6" type="device">
  <diagram name="Page-1" id="F2Gc_G2kpYElJH-ISqym">
    <mxGraphModel dx="1018" dy="682" grid="1" gridSize="10" guides="1" tooltips="1" connect="1" arrows="1" fold="1" page="1" pageScale="1" pageWidth="4681" pageHeight="3300" math="0" shadow="0">
      <root>
        <mxCell id="0" />
        <mxCell id="1" parent="0" />
        <mxCell id="wVfvhvqQupgX3J0Zwfa3-3" style="edgeStyle=orthogonalEdgeStyle;rounded=0;orthogonalLoop=1;jettySize=auto;html=1;exitX=1;exitY=0.5;exitDx=0;exitDy=0;entryX=0;entryY=0.5;entryDx=0;entryDy=0;" edge="1" parent="1" source="wVfvhvqQupgX3J0Zwfa3-1" target="wVfvhvqQupgX3J0Zwfa3-2">
          <mxGeometry relative="1" as="geometry" />
        </mxCell>
        <mxCell id="wVfvhvqQupgX3J0Zwfa3-1" value="&amp;nbsp; &amp;nbsp;&amp;nbsp;Client" style="rounded=1;whiteSpace=wrap;html=1;align=left;fillColor=#fff2cc;strokeColor=#d6b656;" vertex="1" parent="1">
          <mxGeometry x="160" y="310" width="160" height="50" as="geometry" />
        </mxCell>
        <mxCell id="wVfvhvqQupgX3J0Zwfa3-12" style="edgeStyle=orthogonalEdgeStyle;rounded=0;orthogonalLoop=1;jettySize=auto;html=1;exitX=0.5;exitY=1;exitDx=0;exitDy=0;entryX=0.5;entryY=0;entryDx=0;entryDy=0;" edge="1" parent="1" source="wVfvhvqQupgX3J0Zwfa3-2" target="wVfvhvqQupgX3J0Zwfa3-10">
          <mxGeometry relative="1" as="geometry" />
        </mxCell>
        <mxCell id="wVfvhvqQupgX3J0Zwfa3-2" value="&amp;nbsp; &amp;nbsp; API" style="rounded=1;whiteSpace=wrap;html=1;align=left;fillColor=#f8cecc;strokeColor=#b85450;" vertex="1" parent="1">
          <mxGeometry x="480" y="310" width="160" height="50" as="geometry" />
        </mxCell>
        <mxCell id="wVfvhvqQupgX3J0Zwfa3-4" value="" style="shape=cylinder3;whiteSpace=wrap;html=1;boundedLbl=1;backgroundOutline=1;size=15;fillColor=#f5f5f5;fontColor=#333333;strokeColor=#666666;" vertex="1" parent="1">
          <mxGeometry x="800" y="287.5" width="80" height="95" as="geometry" />
        </mxCell>
        <mxCell id="wVfvhvqQupgX3J0Zwfa3-5" style="edgeStyle=orthogonalEdgeStyle;rounded=0;orthogonalLoop=1;jettySize=auto;html=1;exitX=1;exitY=0.5;exitDx=0;exitDy=0;entryX=0;entryY=0.5;entryDx=0;entryDy=0;entryPerimeter=0;" edge="1" parent="1" source="wVfvhvqQupgX3J0Zwfa3-2" target="wVfvhvqQupgX3J0Zwfa3-4">
          <mxGeometry relative="1" as="geometry" />
        </mxCell>
        <mxCell id="wVfvhvqQupgX3J0Zwfa3-6" value="" style="shape=image;verticalLabelPosition=bottom;labelBackgroundColor=default;verticalAlign=top;aspect=fixed;imageAspect=0;image=https://upload.wikimedia.org/wikipedia/commons/thumb/a/a7/React-icon.svg/1150px-React-icon.svg.png;" vertex="1" parent="1">
          <mxGeometry x="260" y="314.35" width="47.5" height="41.3" as="geometry" />
        </mxCell>
        <mxCell id="wVfvhvqQupgX3J0Zwfa3-7" value="" style="shape=image;verticalLabelPosition=bottom;labelBackgroundColor=default;verticalAlign=top;aspect=fixed;imageAspect=0;image=https://static-00.iconduck.com/assets.00/nestjs-icon-2048x2040-3rrvcej8.png;" vertex="1" parent="1">
          <mxGeometry x="580" y="315" width="40.17" height="40" as="geometry" />
        </mxCell>
        <mxCell id="wVfvhvqQupgX3J0Zwfa3-8" value="" style="shape=image;verticalLabelPosition=bottom;labelBackgroundColor=default;verticalAlign=top;aspect=fixed;imageAspect=0;image=https://cdn.iconscout.com/icon/free/png-256/free-mongodb-226029.png;" vertex="1" parent="1">
          <mxGeometry x="806" y="310" width="68" height="68" as="geometry" />
        </mxCell>
        <mxCell id="wVfvhvqQupgX3J0Zwfa3-14" style="edgeStyle=orthogonalEdgeStyle;rounded=0;orthogonalLoop=1;jettySize=auto;html=1;exitX=0.5;exitY=1;exitDx=0;exitDy=0;" edge="1" parent="1" source="wVfvhvqQupgX3J0Zwfa3-10" target="wVfvhvqQupgX3J0Zwfa3-13">
          <mxGeometry relative="1" as="geometry" />
        </mxCell>
        <mxCell id="wVfvhvqQupgX3J0Zwfa3-16" style="edgeStyle=orthogonalEdgeStyle;rounded=0;orthogonalLoop=1;jettySize=auto;html=1;exitX=1;exitY=0.5;exitDx=0;exitDy=0;entryX=0;entryY=0.5;entryDx=0;entryDy=0;startArrow=classic;startFill=1;" edge="1" parent="1" source="wVfvhvqQupgX3J0Zwfa3-10" target="wVfvhvqQupgX3J0Zwfa3-15">
          <mxGeometry relative="1" as="geometry" />
        </mxCell>
        <mxCell id="wVfvhvqQupgX3J0Zwfa3-10" value="&amp;nbsp; &amp;nbsp; Chain" style="rounded=0;whiteSpace=wrap;html=1;align=left;" vertex="1" parent="1">
          <mxGeometry x="480" y="440" width="160" height="60" as="geometry" />
        </mxCell>
        <mxCell id="wVfvhvqQupgX3J0Zwfa3-11" value="" style="shape=image;verticalLabelPosition=bottom;labelBackgroundColor=default;verticalAlign=top;aspect=fixed;imageAspect=0;image=https://cdn.analyticsvidhya.com/wp-content/uploads/2023/07/langchain3.png;" vertex="1" parent="1">
          <mxGeometry x="572.59" y="442.5" width="55" height="55" as="geometry" />
        </mxCell>
        <mxCell id="wVfvhvqQupgX3J0Zwfa3-13" value="Datasource" style="sketch=0;outlineConnect=0;fontColor=#232F3E;gradientColor=none;fillColor=#8C4FFF;strokeColor=none;dashed=0;verticalLabelPosition=bottom;verticalAlign=top;align=center;html=1;fontSize=12;fontStyle=0;aspect=fixed;pointerEvents=1;shape=mxgraph.aws4.athena_data_source_connectors;" vertex="1" parent="1">
          <mxGeometry x="521.5" y="560" width="77" height="78" as="geometry" />
        </mxCell>
        <mxCell id="wVfvhvqQupgX3J0Zwfa3-15" value="GPT Model" style="shape=image;verticalLabelPosition=bottom;labelBackgroundColor=default;verticalAlign=top;aspect=fixed;imageAspect=0;image=https://upload.wikimedia.org/wikipedia/commons/thumb/0/04/ChatGPT_logo.svg/2048px-ChatGPT_logo.svg.png;" vertex="1" parent="1">
          <mxGeometry x="720" y="441.25" width="57.5" height="57.5" as="geometry" />
        </mxCell>
      </root>
    </mxGraphModel>
  </diagram>
</mxfile>
